<svg xmlns="http://www.w3.org/2000/svg" viewBox="0 0 232.44 141.73"><defs><style>.cls-1{fill:#fff}.cls-2{fill:#5e3387}</style></defs><g id="レイヤー_2" data-name="レイヤー 2"><g id="レイヤー_5" data-name="レイヤー 5"><path class="cls-1" d="M82.15 119.58a2.6 2.6 0 00-.89-.75 2.47 2.47 0 00-1.22-.29 2.63 2.63 0 00-2 .91 2.84 2.84 0 00-.56 1 3.44 3.44 0 00-.19 1.16 3.91 3.91 0 00.18 1.22 2.5 2.5 0 00.54 1 2.57 2.57 0 00.89.63 3.29 3.29 0 002.1.09 2.41 2.41 0 00.77-.38 2.29 2.29 0 00.59-.61 2.41 2.41 0 00.35-.84h-1.2a1.45 1.45 0 01-.51.72 1.54 1.54 0 01-.9.24 1.63 1.63 0 01-.69-.14 1.47 1.47 0 01-.48-.37 1.68 1.68 0 01-.28-.55 2.32 2.32 0 01-.09-.65h4.23a3.28 3.28 0 00-.09-1.25 2.89 2.89 0 00-.55-1.14zm-3.62 1.49a1.46 1.46 0 01.12-.6A1.49 1.49 0 0179 120a1.4 1.4 0 01.46-.32 1.51 1.51 0 01.61-.12 1.37 1.37 0 01.58.13 1.41 1.41 0 01.45.34 1.43 1.43 0 01.29.48 2.32 2.32 0 01.13.58zm-3.65-1.63a1.37 1.37 0 00-.36-.4 2.05 2.05 0 00-.47-.29 3.08 3.08 0 00-.54-.16 3.29 3.29 0 00-.54 0 2.67 2.67 0 00-.92.17 2.27 2.27 0 00-.8.54 2.81 2.81 0 00-.57.94 3.91 3.91 0 00-.21 1.35 4.19 4.19 0 00.17 1.2 2.75 2.75 0 00.5 1 2.37 2.37 0 00.84.65 2.75 2.75 0 001.19.24 2.41 2.41 0 001-.22 1.48 1.48 0 00.75-.71v.77h1.2v-8h-1.24zm0 2.87a2 2 0 01-.29.65 1.5 1.5 0 01-.5.47 1.37 1.37 0 01-.72.18 1.41 1.41 0 01-1.21-.61 2 2 0 01-.29-.64 2.55 2.55 0 01-.1-.72 3.16 3.16 0 01.09-.76 1.82 1.82 0 01.27-.67 1.53 1.53 0 01.5-.48 1.5 1.5 0 01.76-.19 1.41 1.41 0 011.16.54 2.28 2.28 0 01.43 1.49 2.64 2.64 0 01-.15.74zm-5.22 1.3a.27.27 0 01-.24-.1.71.71 0 01-.06-.34v-3a1.45 1.45 0 00-.2-.77 1.55 1.55 0 00-.53-.52 2.43 2.43 0 00-.74-.29 3.84 3.84 0 00-.83-.09 4.83 4.83 0 00-.94.09 2.45 2.45 0 00-.82.31 1.85 1.85 0 00-.59.59 1.89 1.89 0 00-.27.93h1.27a.84.84 0 01.39-.69 1.57 1.57 0 01.88-.23h.4a1.41 1.41 0 01.38.11.76.76 0 01.29.24.65.65 0 01.12.4.57.57 0 01-.14.42.92.92 0 01-.38.21 3.71 3.71 0 01-.55.09 5.57 5.57 0 00-.66.1c-.26 0-.53.07-.79.12a2.34 2.34 0 00-.71.28 1.37 1.37 0 00-.52.52 1.7 1.7 0 00-.19.87 1.58 1.58 0 00.16.74 1.47 1.47 0 00.43.52 2 2 0 00.63.31 2.67 2.67 0 00.75.11 3.66 3.66 0 001.06-.17 2.25 2.25 0 00.93-.53.73.73 0 00.34.54 1.15 1.15 0 00.64.16h.63l.17-.06v-.87h-.17zm-1.57-1.09a.89.89 0 01-.14.5 1.2 1.2 0 01-.37.34 1.44 1.44 0 01-.46.19 1.86 1.86 0 01-.45.06 1.82 1.82 0 01-.38 0 1.66 1.66 0 01-.38-.11.92.92 0 01-.29-.23.56.56 0 01-.12-.36 1 1 0 01.08-.41.71.71 0 01.23-.28 1.29 1.29 0 01.33-.17 2.74 2.74 0 01.39-.09 6.43 6.43 0 01.85-.12 1.53 1.53 0 00.71-.23zm-6.81-3.98a2 2 0 00-1.06.26 2.6 2.6 0 00-.75.7 1.23 1.23 0 00-.64-.72 2 2 0 00-1-.24 2.2 2.2 0 00-.61.08 1.72 1.72 0 00-.48.19 1.74 1.74 0 00-.37.3 4.08 4.08 0 00-.31.39v-.8h-1.21v5.75h1.27V121a1.83 1.83 0 01.11-.64 1.37 1.37 0 01.28-.47 1.18 1.18 0 01.87-.39.94.94 0 01.8.31 1.61 1.61 0 01.21.91v3.69h1.27v-3.37A1.9 1.9 0 0160 120a1.09 1.09 0 01.94-.41 1.33 1.33 0 01.58.11.79.79 0 01.31.32 1.22 1.22 0 01.13.49 6.22 6.22 0 010 .63v3.36h1.24v-4a1.87 1.87 0 00-.5-1.49 2.07 2.07 0 00-1.42-.47zm9.25-54.01c0-13-9.66-14.61-13.34-14.61s-13.34 1.59-13.34 14.61 9.67 14.61 13.34 14.61 13.34-1.59 13.34-14.61zm-20.88 0c0-7.76 4.42-9.7 7.54-9.7s7.53 1.94 7.53 9.7-4.4 9.7-7.53 9.7-7.54-1.93-7.54-9.7zm42.24 54.91a2.47 2.47 0 00-.84-.66 2.78 2.78 0 00-1.19-.24 2.58 2.58 0 00-1 .22 1.52 1.52 0 00-.74.72v-.78h-1.27v7.88h1.27v-2.87a1.54 1.54 0 00.36.41 2.43 2.43 0 00.47.28 2.49 2.49 0 00.53.16 3.64 3.64 0 00.56 0 2.26 2.26 0 001.1-.25 2.4 2.4 0 00.78-.67 3 3 0 00.45-1 4.42 4.42 0 000-2.32 2.79 2.79 0 00-.48-.88zm-.69 2.88a1.81 1.81 0 01-.28.65 1.54 1.54 0 01-.49.46 1.42 1.42 0 01-.74.18 1.34 1.34 0 01-.68-.16 1.48 1.48 0 01-.51-.42 1.83 1.83 0 01-.32-.64 3 3 0 01-.1-.81 2.45 2.45 0 01.4-1.48 1.43 1.43 0 011.21-.56 1.41 1.41 0 01.69.17 1.57 1.57 0 01.5.46 1.84 1.84 0 01.3.65 2.78 2.78 0 01.1.76 3.05 3.05 0 01-.08.74zm20.61-3.62h1.27v5.76h-1.27zm0-2.2h1.27v1.2h-1.27zm-1.57 5.05a2.11 2.11 0 00-.6-.3 5.27 5.27 0 00-.68-.19l-.69-.15a3.69 3.69 0 01-.6-.16 1.18 1.18 0 01-.43-.24.5.5 0 01-.16-.38.42.42 0 01.11-.3.75.75 0 01.28-.18 1.21 1.21 0 01.34-.08h.32a1.8 1.8 0 01.75.16.79.79 0 01.42.61h1.32a1.77 1.77 0 00-.27-.82 1.8 1.8 0 00-.55-.55 2.4 2.4 0 00-.73-.31 3.89 3.89 0 00-.85-.09 4.83 4.83 0 00-.82.08 2.49 2.49 0 00-.78.27 1.78 1.78 0 00-.58.51 1.36 1.36 0 00-.23.79 1.61 1.61 0 00.16.73 1.22 1.22 0 00.42.48 1.93 1.93 0 00.59.3 4.85 4.85 0 00.68.19l.68.15a4.34 4.34 0 01.6.16 1.39 1.39 0 01.43.25.53.53 0 01.17.4.58.58 0 01-.11.4.83.83 0 01-.33.22 1.6 1.6 0 01-.43.11h-.41a1.67 1.67 0 01-.88-.23.94.94 0 01-.42-.77h-1.27a2 2 0 00.21.88 1.9 1.9 0 00.53.63 2.51 2.51 0 00.81.37 3.94 3.94 0 001 .12 4 4 0 00.9-.1 3 3 0 00.83-.32 1.88 1.88 0 00.61-.58 1.53 1.53 0 00.23-.87 1.39 1.39 0 00-.58-1.19zm9.29-2.11a2.29 2.29 0 00-.84-.66 2.75 2.75 0 00-1.19-.24 2.05 2.05 0 00-.49.06 2.09 2.09 0 00-.9.47 1.89 1.89 0 00-.32.37v-2.94h-1.29v8h1.2v-.79a1.46 1.46 0 00.36.47 1.86 1.86 0 00.49.29 2.11 2.11 0 00.56.15 3.86 3.86 0 00.58 0 2.2 2.2 0 001.88-.92 3.05 3.05 0 00.46-1 4.29 4.29 0 000-2.32 2.79 2.79 0 00-.5-.94zm-.68 2.88a2 2 0 01-.28.65 1.57 1.57 0 01-.5.46 1.39 1.39 0 01-.73.18 1.41 1.41 0 01-.69-.16 1.68 1.68 0 01-.51-.42 1.82 1.82 0 01-.31-.64 3 3 0 01-.11-.81 2.45 2.45 0 01.41-1.48 1.55 1.55 0 011.9-.39 1.69 1.69 0 01.5.46 2.28 2.28 0 01.3.65 2.78 2.78 0 01.1.76 3.65 3.65 0 01-.08.74zM98.4 119.4a2.48 2.48 0 00-.91-.63 3.4 3.4 0 00-2.46 0 2.56 2.56 0 00-.91.63 2.64 2.64 0 00-.57 1 4 4 0 000 2.43 2.61 2.61 0 001.45 1.55 3.4 3.4 0 002.46 0 2.48 2.48 0 00.91-.63 2.56 2.56 0 00.57-1 3.79 3.79 0 000-2.43 2.64 2.64 0 00-.54-.92zm-.6 2.91a2 2 0 01-.29.65 1.54 1.54 0 01-.51.47 1.47 1.47 0 01-.74.18 1.41 1.41 0 01-.73-.18A1.67 1.67 0 0195 123a2 2 0 01-.29-.65 3 3 0 010-1.47 2 2 0 01.29-.66 1.64 1.64 0 01.52-.46 1.41 1.41 0 01.73-.18 1.47 1.47 0 01.74.18 1.51 1.51 0 01.51.46 2 2 0 01.29.66 2.75 2.75 0 010 1.47zm12.27-36.66c4.78 0 5.69 3.13 6.14 4.79H122c-.32-4.09-3.67-9.82-12-9.82-7.17 0-12.77 4.95-12.77 14.66s5.3 14.56 12.68 14.56c7 0 10.9-4.21 12.06-10.23h-5.8c-.69 3.39-2.93 5.21-6.14 5.21-4.91 0-6.89-4.48-6.89-9.47.04-7.85 4.15-9.7 6.93-9.7zm34.24.52v-4.91h-19.97v27.75h19.97v-4.9h-14.57v-7.2h12.84V92h-12.84v-5.83h14.57zm0-43.27h-14.57v-7.2h12.84v-4.9h-12.84v-5.84h14.57v-4.91h-19.97v27.76h19.97V42.9zM75.55 86.17v-4.91H55.81v27.75h5.79V97.34h12.21v-4.91H61.6v-6.26h13.95zm52.14-20.2h10.81v12.44h5.81V50.65h-5.81v10.51h-10.81V50.65h-5.8v27.76h5.8V65.97zM35.8 69.98h-.08L24.71 50.65H18.6v27.76h5.42V58.62h.08l11.32 19.79h5.8V50.65H35.8v19.33zm42.82-2.43h6c4.31 0 4.53 1.47 4.53 5.26a18.64 18.64 0 00.62 5.6h6.42v-.73c-1.24-.47-1.24-1.47-1.24-5.53 0-5.18-1.24-6-3.52-7a6.65 6.65 0 004.3-6.61c0-2.41-1.35-7.86-8.74-7.86h-14v27.73h5.69zm0-12.09h7.24c3.38 0 4 2.16 4 3.62 0 2.74-1.47 3.79-4.48 3.79h-6.76zm4.6-7.65H89V24.96h8.39v-4.91H74.82v4.91h8.4v22.85zm22.02-12.46h10.82v12.46h5.81V20.05h-5.81v10.52h-10.82V20.05h-5.79v27.76h5.79V35.35zm6.19 43.06V55.56h8.37v-4.9H97.23v4.9h8.4v22.85h5.8zm-31.34 24.88h10.24L92.1 109h6.31l-9.78-27.74H82L72.05 109h6.1zm5.11-15.77h.06l3.45 11h-7.07zm19.26 34.03a2 2 0 00-.6-.3 5.27 5.27 0 00-.68-.19l-.69-.15a4 4 0 01-.6-.16 1.06 1.06 0 01-.42-.24.47.47 0 01-.17-.38.39.39 0 01.12-.3.64.64 0 01.27-.18 1.3 1.3 0 01.34-.08h.32a1.8 1.8 0 01.75.16.79.79 0 01.42.61h1.33a1.9 1.9 0 00-.28-.82 1.77 1.77 0 00-.54-.55 2.57 2.57 0 00-.74-.31 3.89 3.89 0 00-.85-.09 4.83 4.83 0 00-.82.08 2.58 2.58 0 00-.78.27 1.89 1.89 0 00-.58.51 1.36 1.36 0 00-.22.79 1.61 1.61 0 00.15.73 1.22 1.22 0 00.42.48 1.93 1.93 0 00.59.3 5.27 5.27 0 00.68.19l.68.15a4 4 0 01.6.16 1.39 1.39 0 01.43.25.58.58 0 01.18.4.63.63 0 01-.12.4.83.83 0 01-.33.22 1.51 1.51 0 01-.43.11h-.41a1.67 1.67 0 01-.88-.23.94.94 0 01-.42-.77h-1.27a2 2 0 00.21.88 1.9 1.9 0 00.53.63 2.51 2.51 0 00.81.37 4 4 0 001 .12 3.94 3.94 0 00.9-.1 3 3 0 00.83-.32 1.88 1.88 0 00.61-.58 1.53 1.53 0 00.23-.87 1.41 1.41 0 00-.16-.71 1.31 1.31 0 00-.41-.48zm88.86 2.31v-4.73l-.05-.12a3 3 0 00-.23-1.12l-.06-.08a.52.52 0 00-.19-.17 1.7 1.7 0 00-.69-.21h-.87a4.5 4.5 0 00-.6.09h-.27a2.68 2.68 0 00-.59.3 3.14 3.14 0 01-.52.38.22.22 0 01-.07-.06.43.43 0 010-.16 1 1 0 00-.24-.52.62.62 0 00-.42-.18h.05a8 8 0 00-1.08.08h-.11a6.83 6.83 0 00-.73.14h-.08a.37.37 0 00-.14.06 4.26 4.26 0 00-.6.45h-.08l-.3.32h-.13v-.9a.19.19 0 00-.11-.13.33.33 0 00-.19-.06l-.07-.06a3.24 3.24 0 00-.75.37 1.18 1.18 0 00-.38.42l.17.16.07.08v.16c0 .37.07 1.11.09 1.93v4.1a.81.81 0 00.25 0 .37.37 0 00.2 0l.52-.26a.74.74 0 00.16-.11.18.18 0 00.06-.1v.07l-.07-.84v-3.07a2.15 2.15 0 01.06-.55 2.9 2.9 0 01.23-.53 4.13 4.13 0 011.55-.55h.33v.06a.65.65 0 01.15 0c.62 0 .53.39.58 1.22 0 .37.05.93.07 1.5v.51l.06.1a2.53 2.53 0 000 .28v.68a.61.61 0 000 .15v.66l-.07.84v.06h.05a.14.14 0 00.08.07 1.22 1.22 0 00.38-.16l.21-.08h.05a1.87 1.87 0 00.3-.17h.08v-.08a.27.27 0 000-.15c0-.26-.11-3.41-.14-4.27V119a1.33 1.33 0 01.49-.35 3.85 3.85 0 01.63-.21h.67c.41 0 .81.42.92.7v4.04a10.1 10.1 0 01-.05 1.07v.5h.34l.19-.13c.2-.11.41-.24.54-.33h.1l.2-.1v-.13zm-72.02-7.36h1.27v7.95h-1.27zm28.56-96.45h-1.27v27.76h1.27A37.68 37.68 0 01187.56 85v24h26.62V84.38a64.29 64.29 0 00-64.32-64.33zm12.04 73.24a12 12 0 00-12-12h-1.27V109h13.27zm2.5 30.54a13.37 13.37 0 01-.16-2.23 11.65 11.65 0 00-.39-2.95v-.08h-.06a.83.83 0 00-.09-.16l-.17-.19a.1.1 0 00-.08-.07 2.75 2.75 0 00-.41-.31l-.14-.08h-.08a3.12 3.12 0 00-1.19-.27h-.77a4.93 4.93 0 00-1.12.15l-.1.06a5.4 5.4 0 00-.73.26l-.18.06-.41.21h-.28l-.26.2-.13.09s.05.11.12.17a.71.71 0 00.24.13h.11a1.71 1.71 0 00.52.17h.06a.29.29 0 00.16-.11l.09-.13a2.14 2.14 0 01.29-.22 3 3 0 012.47-.45 1.51 1.51 0 01.88.63 2.76 2.76 0 01.37 1.4.51.51 0 01-.22.12 17.07 17.07 0 00-2.37.3 1.73 1.73 0 00-.39.1 5.09 5.09 0 00-2.12 1c-.66.59-1.25 1.42-.75 2.11s1 1.22 3 .92a10.83 10.83 0 002.68-.64h.14l.16-.1a1.41 1.41 0 01-.06.27 1.3 1.3 0 00-.08.34.15.15 0 000 .11.14.14 0 00.11.06 2 2 0 00.34-.12l.3-.09.33-.17.23-.09.12-.18.08-.15zM163 123a3.47 3.47 0 01-1.49.81 4.51 4.51 0 01-2.51.16 1.23 1.23 0 01-.68-.61l-.15-.6a1.06 1.06 0 01.26-.59 4.28 4.28 0 013.21-1.12h1.07a.38.38 0 01.24.1c0 .55 0 1.2.06 1.69zm10.07-3.42V119a.92.92 0 00-.11-.56l-.16-.25-.12-.19a.46.46 0 00-.12-.12 2.32 2.32 0 00-1.72-.51 6.69 6.69 0 00-2.27.45 5 5 0 00-.53.32l-.34.33-.17.22v-.91c0-.48-.66-.47-.93-.29-.69.44-.7.66-.7.66s.38.21.43 1l.07 1.39v3.84c0 .32.14.25.14.25a.62.62 0 00.26-.09l.72-.24a.23.23 0 00.12-.1.28.28 0 000-.12l-.06-.27v-4.03c0-.22 0-.89 1.8-1.24h.07c1.7-.32 2.41.21 2.46 1.22 0 .56.08 1.56.1 2.39v1.14c0 .16-.08.65-.1.86v.14a.57.57 0 00.11.2.12.12 0 00.09.12h.06a1.25 1.25 0 00.49-.22 1.6 1.6 0 00.46-.22h.08v-.08a.27.27 0 00.05-.15c0-.26-.11-3.41-.14-4.27zm40.93 4.25a14.21 14.21 0 01-.17-2.23 11.22 11.22 0 00-.39-2.95v-.08l-.09-.16c-.06-.06-.11-.13-.18-.19a.11.11 0 00-.08-.07 3.38 3.38 0 00-.41-.31l-.14-.08h-.09a3.06 3.06 0 00-1.18-.27h-.77a5 5 0 00-1.13.15l-.11.06a4.86 4.86 0 00-.72.26l-.18.06-.42.21h-.28l-.25.2-.13.09s0 .11.12.17a.71.71 0 00.24.13h.11a1.71 1.71 0 00.52.17h.05a.29.29 0 00.16-.11l.09-.13a3.06 3.06 0 01.29-.22 3 3 0 012.47-.45 1.51 1.51 0 01.88.63 2.66 2.66 0 01.37 1.4.42.42 0 01-.21.12 17.07 17.07 0 00-2.37.3 1.73 1.73 0 00-.39.1 5 5 0 00-2.11 1c-.66.59-1.25 1.42-.76 2.11s1 1.22 3 .92a11.08 11.08 0 002.69-.64h.14l.15-.1a.67.67 0 01-.06.27 2 2 0 00-.08.34.21.21 0 000 .11.15.15 0 00.11.06 2 2 0 00.34-.12l.31-.09.32-.17.23-.09.11-.23.08-.15zm-1.42-.88a3.61 3.61 0 01-1.49.81 4.55 4.55 0 01-2.52.16 1.26 1.26 0 01-.68-.61l-.15-.6a1 1 0 01.25-.59 4.31 4.31 0 013.22-1.12h1.07a.33.33 0 01.23.1c0 .55.05 1.2.07 1.69z"/><path class="cls-1" d="M184.71 109V85.37a34.86 34.86 0 00-34.82-34.72h-1.31v27.76h1.28a14.87 14.87 0 0114.88 14.88V109zM182 123.83a13.37 13.37 0 01-.16-2.23 11.66 11.66 0 00-.4-2.95v-.08h-.05l-.09-.16a1.57 1.57 0 00-.18-.19.1.1 0 00-.08-.07 3.38 3.38 0 00-.41-.31l-.14-.08h-.09a3.06 3.06 0 00-1.18-.27h-.77a5 5 0 00-1.13.15h-.05l-.1.06a4.86 4.86 0 00-.72.26l-.18.06-.42.21h-.27l-.26.2-.13.09s0 .11.12.17a.71.71 0 00.24.13h.11a1.71 1.71 0 00.52.17.26.26 0 00.16-.11l.09-.13a3.06 3.06 0 01.29-.22 3 3 0 012.48-.45 1.46 1.46 0 01.87.63 2.66 2.66 0 01.37 1.4.42.42 0 01-.21.12 17.07 17.07 0 00-2.37.3 1.73 1.73 0 00-.39.1 5 5 0 00-2.11 1c-.66.59-1.25 1.42-.76 2.11s1 1.22 3 .92a11 11 0 002.68-.64h.14l.16-.1a.84.84 0 01-.07.27 2 2 0 00-.08.34.21.21 0 00.05.11.17.17 0 00.11.06 1.69 1.69 0 00.34-.12l.31-.09.32-.17.24-.09.12-.18.08-.15zm-1.42-.88a3.6 3.6 0 01-1.5.81 4.51 4.51 0 01-2.51.16 1.3 1.3 0 01-.68-.61l-.15-.6a1 1 0 01.25-.59 4.31 4.31 0 013.22-1.12h1.07a.33.33 0 01.23.1c0 .55.05 1.2.07 1.69zm15.73-5.56l-.76.43a.9.9 0 00-.46.47.8.8 0 01.13.13 5.49 5.49 0 01.09 1.13v4.23a1.55 1.55 0 010 .32 1.09 1.09 0 00-.07.33.16.16 0 00.08.13.28.28 0 00.18.06.29.29 0 00.23-.1l.4-.3a2.17 2.17 0 00.5-.45v-5.51a1.72 1.72 0 01.17-.6.61.61 0 00-.49-.27zm-58.01 2.05a2.29 2.29 0 00-.84-.66 2.73 2.73 0 00-1.18-.24 2.14 2.14 0 00-.5.06 2.09 2.09 0 00-.9.47 1.89 1.89 0 00-.32.37v-2.94h-1.27v8h1.2v-.79a1.36 1.36 0 00.37.47 1.66 1.66 0 00.48.29 2.21 2.21 0 00.56.15 3.9 3.9 0 00.59 0 2.2 2.2 0 001.87-.92 2.85 2.85 0 00.46-1 4.29 4.29 0 000-2.32 2.63 2.63 0 00-.52-.94zm-.68 2.88a2 2 0 01-.28.65 1.57 1.57 0 01-.5.46 1.39 1.39 0 01-.73.18 1.41 1.41 0 01-.69-.16 1.54 1.54 0 01-.5-.42 1.83 1.83 0 01-.32-.64 3 3 0 01-.11-.81 2.45 2.45 0 01.41-1.48 1.55 1.55 0 011.9-.39 1.57 1.57 0 01.5.46 2.28 2.28 0 01.3.65 2.78 2.78 0 01.1.76 3.65 3.65 0 01-.08.74zm-9.05-2.74a2.74 2.74 0 00-.9-.75 2.43 2.43 0 00-1.21-.29 2.57 2.57 0 00-1.16.25 2.61 2.61 0 00-.88.66 3 3 0 00-.55 1 3.45 3.45 0 00-.2 1.16 3.63 3.63 0 00.19 1.22 2.5 2.5 0 001.43 1.59 3 3 0 001.2.22 2.9 2.9 0 00.89-.13 2.36 2.36 0 00.78-.38 2.45 2.45 0 00.59-.61 2.4 2.4 0 00.34-.84h-1.2a1.4 1.4 0 01-.51.72 1.49 1.49 0 01-.89.24 1.6 1.6 0 01-.69-.14 1.47 1.47 0 01-.48-.37 1.51 1.51 0 01-.28-.55 2 2 0 01-.1-.65h4.23a3.28 3.28 0 00-.08-1.25 3 3 0 00-.52-1.1zm-3.63 1.49a1.71 1.71 0 01.44-1.09 1.56 1.56 0 01.47-.32 1.48 1.48 0 01.61-.12 1.37 1.37 0 01.58.13 1.48 1.48 0 01.44.34 1.17 1.17 0 01.29.48 1.68 1.68 0 01.13.58zm72.06-6.48a.29.29 0 00-.1-.24.39.39 0 00-.25-.1.49.49 0 00-.21 0 2.54 2.54 0 00-.49.61l-.69.62a.32.32 0 00-.09.25.16.16 0 000 .1.1.1 0 00.08 0h.06a2.19 2.19 0 00.9-.42c.23-.19.77-.6.76-.8zm-41.46 4.99V119a.92.92 0 00-.11-.56l-.16-.25-.11-.19a.49.49 0 00-.13-.12 2.3 2.3 0 00-1.71-.51 6.7 6.7 0 00-2.28.45 5 5 0 00-.53.32l-.34.33-.17.22v-.91c0-.48-.66-.47-.93-.29-.68.44-.7.66-.7.66s.38.21.43 1l.07 1.39v3.84c0 .32.14.25.14.25a.62.62 0 00.26-.09l.72-.24a.23.23 0 00.12-.1.19.19 0 00-.11-.2l-.06-.27v-4.03c0-.22 0-.89 1.8-1.24h.07c1.7-.32 2.41.21 2.46 1.22 0 .56.08 1.56.1 2.39v1.14c0 .16-.07.65-.1.86v.14a.57.57 0 00.11.2.12.12 0 00.09.12h.06a1.19 1.19 0 00.49-.22 1.6 1.6 0 00.46-.22h.08v-.08a.27.27 0 00.05-.15c0-.26-.11-3.41-.14-4.27zm49.76 3.2a.28.28 0 00-.2.13c-.14.14-.26.26-.37.35l-.42.26h-.18l-.23.15a2.58 2.58 0 01-.47.16 4.47 4.47 0 01-2.5-.19h-.06l-.53-.36-.09-.13h-.09a4.9 4.9 0 01-1-2.19.22.22 0 010-.08v-.35a1.34 1.34 0 01.1-.45 2.41 2.41 0 01.48-.71 3 3 0 012-.9 5.36 5.36 0 01.58 0l.85.13h.49l.23-.11c.61-.25 1.12-.95.59-1s-1.31 0-1.63 0a3.21 3.21 0 00-.72 0c-.82.07-2.81.67-3.51 2a9.26 9.26 0 00-.43 1l-.17.3v.21a2.78 2.78 0 00-.07.81 2.86 2.86 0 00.2.88v.07a2.75 2.75 0 001.25 1.34h.13a4.76 4.76 0 001.79.46h.88a3.57 3.57 0 002.93-1.07v-.07l.06-.07v-.09l.07-.31a.19.19 0 000-.07.17.17 0 00-.05-.12.16.16 0 00.09.02z"/><rect class="cls-1" x="232.44" height="141.73"/><path class="cls-1" d="M142.32 123l-1.5-4.3h-1.4l2.19 5.73-.15.45c0 .12-.08.24-.12.33a.89.89 0 01-.16.25.51.51 0 01-.24.16 1 1 0 01-.37.06 1.53 1.53 0 01-.3 0l-.3-.05v1.07a6.4 6.4 0 00.88.07 1.93 1.93 0 00.82-.16 1.66 1.66 0 00.54-.44 2.73 2.73 0 00.36-.63l.31-.74 2.25-6.07h-1.33z"/><path class="cls-2" d="M137.3 120.17a1.57 1.57 0 00-.5-.46 1.55 1.55 0 00-1.9.39 2.45 2.45 0 00-.41 1.48 3 3 0 00.11.81 1.83 1.83 0 00.32.64 1.54 1.54 0 00.5.42 1.41 1.41 0 00.69.16 1.39 1.39 0 00.73-.18 1.57 1.57 0 00.5-.46 2 2 0 00.28-.65 3.65 3.65 0 00.08-.74 2.78 2.78 0 00-.1-.76 2.28 2.28 0 00-.3-.65zm-9.82-.17a1.48 1.48 0 00-.44-.34 1.37 1.37 0 00-.58-.13 1.48 1.48 0 00-.61.12 1.56 1.56 0 00-.47.32 1.71 1.71 0 00-.44 1.09h3a1.68 1.68 0 00-.13-.58 1.17 1.17 0 00-.33-.48zm-8.95.17a1.69 1.69 0 00-.5-.46 1.55 1.55 0 00-1.9.39 2.45 2.45 0 00-.41 1.48 3 3 0 00.11.81 1.82 1.82 0 00.31.64 1.68 1.68 0 00.51.42 1.41 1.41 0 00.69.16 1.39 1.39 0 00.73-.18 1.57 1.57 0 00.5-.46 2 2 0 00.28-.65 3.65 3.65 0 00.08-.74 2.78 2.78 0 00-.1-.76 2.28 2.28 0 00-.3-.65zM89.91 59.08c0-1.46-.67-3.62-4-3.62h-7.29v7.41h6.81c3.01 0 4.48-1.05 4.48-3.79zm73.02 62.06a.38.38 0 00-.24-.1h-1.07a4.28 4.28 0 00-3.21 1.12 1.06 1.06 0 00-.26.59l.15.6a1.23 1.23 0 00.68.61 4.51 4.51 0 002.51-.16 3.47 3.47 0 001.51-.8v-.1c0-.56 0-1.21-.07-1.76zm-96.4.78a2.74 2.74 0 00-.39.09 1.29 1.29 0 00-.33.17.71.71 0 00-.23.28 1 1 0 00-.08.41.56.56 0 00.12.36.92.92 0 00.29.23 1.66 1.66 0 00.38.11 1.82 1.82 0 00.38 0 1.86 1.86 0 00.45-.06 1.44 1.44 0 00.46-.19A1.2 1.2 0 0068 123a.89.89 0 00.14-.5v-1a1.53 1.53 0 01-.71.23 6.43 6.43 0 00-.9.19zm30.98-1.74a1.51 1.51 0 00-.51-.46 1.47 1.47 0 00-.74-.18 1.41 1.41 0 00-.73.18 1.64 1.64 0 00-.52.46 2 2 0 00-.29.66 3 3 0 000 1.47 2 2 0 00.28.69 1.67 1.67 0 00.52.47 1.41 1.41 0 00.73.18 1.47 1.47 0 00.74-.18 1.54 1.54 0 00.51-.47 2 2 0 00.29-.65 2.75 2.75 0 000-1.47 2 2 0 00-.28-.7zm-24.17-.64a1.5 1.5 0 00-.76.19 1.53 1.53 0 00-.5.48 1.82 1.82 0 00-.27.67 3.16 3.16 0 00-.09.76 2.55 2.55 0 00.1.72 2 2 0 00.29.64 1.41 1.41 0 001.21.61 1.37 1.37 0 00.72-.18 1.5 1.5 0 00.5-.47 2 2 0 00.29-.65 2.64 2.64 0 00.1-.74 2.28 2.28 0 00-.43-1.49 1.41 1.41 0 00-1.16-.54zm17.54.63a1.57 1.57 0 00-.5-.46 1.41 1.41 0 00-.69-.17 1.43 1.43 0 00-1.21.56 2.45 2.45 0 00-.4 1.48 3 3 0 00.1.81 1.83 1.83 0 00.32.64 1.48 1.48 0 00.51.42 1.34 1.34 0 00.68.16 1.42 1.42 0 00.74-.18 1.54 1.54 0 00.49-.46 1.81 1.81 0 00.28-.65 3.05 3.05 0 00.08-.74 2.78 2.78 0 00-.1-.76 1.84 1.84 0 00-.3-.65zm-9.81-.17a1.41 1.41 0 00-.45-.34 1.37 1.37 0 00-.58-.13 1.51 1.51 0 00-.61.12 1.4 1.4 0 00-.43.35 1.49 1.49 0 00-.32.49 1.46 1.46 0 00-.12.6h3a2.32 2.32 0 00-.13-.58 1.43 1.43 0 00-.36-.51zM64.72 64.53c0-7.76-4.4-9.7-7.53-9.7s-7.54 1.94-7.54 9.7 4.42 9.7 7.54 9.7 7.53-1.93 7.53-9.7zm20.54 22.99h-.06L81.64 98.5h7.07l-3.45-10.98zm127.27 33.62a.33.33 0 00-.23-.1h-1.07a4.31 4.31 0 00-3.22 1.12 1 1 0 00-.25.59l.15.6a1.26 1.26 0 00.68.61 4.55 4.55 0 002.52-.16 3.61 3.61 0 001.49-.81v-.1c-.02-.55-.05-1.2-.07-1.75z"/><path class="cls-2" d="M0 0v141.73h232.44V0zm124.34 20.05h20V25h-14.6v5.8h12.84v4.9h-12.84v7.2h14.57v4.91h-20zm-2.45 30.6h5.8v10.51h10.81V50.65h5.81v27.76h-5.81V66h-10.81v12.41h-5.8zM142.58 92v4.91h-12.84v7.2h14.57V109h-20V81.26h20v4.91h-14.57V92zm-32.51 12.82c3.21 0 5.45-1.82 6.14-5.21H122c-1.16 6-5.1 10.23-12.06 10.23-7.38 0-12.68-5-12.68-14.56s5.6-14.66 12.77-14.66c8.3 0 11.65 5.73 12 9.82h-5.8c-.45-1.66-1.36-4.79-6.14-4.79-2.78 0-6.89 1.85-6.89 9.7-.02 4.99 1.96 9.47 6.87 9.47zM73.81 92.43v4.91H61.6V109h-5.79V81.26h19.74v4.91H61.6v6.26zM82 81.26h6.68L98.41 109H92.1l-1.77-5.72H80.09L78.15 109h-6.1zm15.28-25.7v-4.91h22.52v4.91h-8.37v22.85h-5.8V55.56zm2.22-35.51h5.79v10.52h10.82V20.05h5.81v27.76h-5.81V35.36h-10.87v12.45h-5.79zm-24.63 0h22.52V25H89v22.81h-5.78V25h-8.4zm-1.89 30.6H87c7.39 0 8.74 5.45 8.74 7.86a6.65 6.65 0 01-4.3 6.61c2.28 1 3.52 1.85 3.52 7 0 4.06 0 5.06 1.24 5.53v.73h-6.45a18.64 18.64 0 01-.62-5.6c0-3.79-.22-5.26-4.53-5.26h-6v10.89h-5.67zM41.22 78.41h-5.8L24.1 58.62H24v19.79h-5.4V50.65h6.11L35.72 70h.09V50.65h5.41zm2.63-13.88c0-13 9.67-14.61 13.34-14.61s13.34 1.59 13.34 14.61-9.66 14.61-13.34 14.61-13.34-1.59-13.34-14.61zm19.35 59.92h-1.27v-3.36a6.22 6.22 0 000-.63 1.22 1.22 0 00-.13-.49.79.79 0 00-.31-.32 1.33 1.33 0 00-.58-.11 1.09 1.09 0 00-.91.46 1.9 1.9 0 00-.29 1.13v3.37h-1.32v-3.69a1.61 1.61 0 00-.21-.91.94.94 0 00-.8-.31 1.18 1.18 0 00-.87.39 1.37 1.37 0 00-.28.47 1.83 1.83 0 00-.11.64v3.41h-1.27v-5.8h1.21v.8a4.08 4.08 0 01.31-.39 1.74 1.74 0 01.37-.3 1.72 1.72 0 01.48-.19 2.2 2.2 0 01.61-.08 2 2 0 011 .24 1.23 1.23 0 01.64.72 2.6 2.6 0 01.75-.7 2 2 0 011.06-.26 2.07 2.07 0 011.42.45 1.87 1.87 0 01.5 1.49zm6.77 0l-.17.06h-.63a1.15 1.15 0 01-.64-.16.73.73 0 01-.34-.54 2.25 2.25 0 01-.93.53 3.66 3.66 0 01-1.06.17 2.67 2.67 0 01-.75-.11 2 2 0 01-.63-.31 1.47 1.47 0 01-.43-.52 1.58 1.58 0 01-.16-.74 1.7 1.7 0 01.19-.87 1.37 1.37 0 01.52-.52 2.34 2.34 0 01.71-.28c.26-.05.53-.09.79-.12a5.57 5.57 0 01.66-.1 3.71 3.71 0 00.55-.09.92.92 0 00.38-.21.57.57 0 00.14-.42.65.65 0 00-.12-.4.76.76 0 00-.29-.24 1.41 1.41 0 00-.38-.11h-.4a1.57 1.57 0 00-.88.23.84.84 0 00-.39.69h-1.27a1.89 1.89 0 01.27-.93 1.85 1.85 0 01.59-.59 2.45 2.45 0 01.82-.31 4.83 4.83 0 01.94-.09 3.84 3.84 0 01.83.09 2.43 2.43 0 01.74.29 1.55 1.55 0 01.53.52 1.45 1.45 0 01.2.77v3a.71.71 0 00.06.34.27.27 0 00.24.1h.31zm6.18 0H75v-.77a1.48 1.48 0 01-.75.71 2.41 2.41 0 01-1 .22 2.75 2.75 0 01-1.19-.24 2.37 2.37 0 01-.84-.65 2.75 2.75 0 01-.5-1 4.19 4.19 0 01-.17-1.2 3.91 3.91 0 01.21-1.35 2.81 2.81 0 01.57-.94 2.27 2.27 0 01.8-.54 2.67 2.67 0 01.92-.17 3.29 3.29 0 01.54 0 3.08 3.08 0 01.54.16 2.05 2.05 0 01.47.29 1.37 1.37 0 01.36.4v-2.87h1.27zm6.61-2.55h-4.23a2.32 2.32 0 00.09.65 1.68 1.68 0 00.28.55 1.47 1.47 0 00.48.37 1.63 1.63 0 00.69.14 1.54 1.54 0 00.9-.24 1.45 1.45 0 00.51-.72h1.2a2.41 2.41 0 01-.35.84 2.29 2.29 0 01-.59.61 2.41 2.41 0 01-.77.38 3.29 3.29 0 01-2.1-.09 2.57 2.57 0 01-.89-.63 2.5 2.5 0 01-.54-1 3.91 3.91 0 01-.18-1.22 3.44 3.44 0 01.19-1.16 2.84 2.84 0 01.56-1 2.63 2.63 0 012-.91 2.47 2.47 0 011.22.29 2.6 2.6 0 01.89.75 2.89 2.89 0 01.52 1.07 3.28 3.28 0 01.12 1.32zm9.64.83a3 3 0 01-.45 1 2.4 2.4 0 01-.78.67 2.26 2.26 0 01-1.1.25 3.64 3.64 0 01-.56 0 2.49 2.49 0 01-.53-.16 2.43 2.43 0 01-.47-.28 1.54 1.54 0 01-.36-.41v2.87h-1.3v-7.97h1.21v.78a1.52 1.52 0 01.74-.72 2.58 2.58 0 011-.22 2.78 2.78 0 011.19.24 2.47 2.47 0 01.84.66 2.79 2.79 0 01.5 1 4.42 4.42 0 010 2.32zm6.57.06a2.56 2.56 0 01-.57 1 2.48 2.48 0 01-.91.63 3.4 3.4 0 01-2.46 0 2.61 2.61 0 01-1.48-1.59 4 4 0 010-2.43 2.64 2.64 0 01.57-1 2.56 2.56 0 01.91-.63 3.4 3.4 0 012.46 0 2.48 2.48 0 01.91.63 2.64 2.64 0 01.57 1 3.79 3.79 0 010 2.43zm5.84.82a1.88 1.88 0 01-.61.58 3 3 0 01-.83.32 3.94 3.94 0 01-.9.1 4 4 0 01-1-.12 2.51 2.51 0 01-.81-.37 1.9 1.9 0 01-.53-.63 2 2 0 01-.21-.88h1.27a.94.94 0 00.42.77 1.67 1.67 0 00.88.23h.41a1.51 1.51 0 00.43-.11.83.83 0 00.33-.22.63.63 0 00.12-.4.58.58 0 00-.18-.4 1.39 1.39 0 00-.43-.25 4 4 0 00-.6-.16l-.68-.15a5.27 5.27 0 01-.68-.19 1.93 1.93 0 01-.59-.3 1.22 1.22 0 01-.42-.48 1.61 1.61 0 01-.15-.73 1.36 1.36 0 01.22-.79 1.89 1.89 0 01.58-.51 2.58 2.58 0 01.78-.27 4.83 4.83 0 01.82-.08 3.89 3.89 0 01.85.09 2.57 2.57 0 01.74.31 1.77 1.77 0 01.54.55 1.9 1.9 0 01.28.82h-1.33a.79.79 0 00-.42-.61 1.8 1.8 0 00-.75-.16h-.32a1.3 1.3 0 00-.34.08.64.64 0 00-.27.18.39.39 0 00-.12.3.47.47 0 00.17.38 1.06 1.06 0 00.42.24 4 4 0 00.6.16l.69.15a5.27 5.27 0 01.68.19 2 2 0 01.6.3 1.31 1.31 0 01.42.48 1.41 1.41 0 01.16.71 1.53 1.53 0 01-.24.87zm5.78 0a1.88 1.88 0 01-.61.58 3 3 0 01-.83.32 4 4 0 01-.9.1 3.94 3.94 0 01-1-.12 2.51 2.51 0 01-.81-.37 1.9 1.9 0 01-.53-.63 2 2 0 01-.21-.88h1.3a.94.94 0 00.42.77 1.67 1.67 0 00.88.23h.41a1.6 1.6 0 00.43-.11.83.83 0 00.33-.22.58.58 0 00.11-.4.53.53 0 00-.17-.4 1.39 1.39 0 00-.43-.25 4.34 4.34 0 00-.6-.16l-.68-.15a4.85 4.85 0 01-.68-.19 1.93 1.93 0 01-.59-.3 1.22 1.22 0 01-.42-.48 1.61 1.61 0 01-.16-.73 1.36 1.36 0 01.23-.79 1.78 1.78 0 01.58-.51 2.49 2.49 0 01.78-.27 4.83 4.83 0 01.82-.08 3.89 3.89 0 01.85.09 2.4 2.4 0 01.73.31 1.8 1.8 0 01.55.55 1.77 1.77 0 01.27.82h-1.36a.79.79 0 00-.42-.61 1.8 1.8 0 00-.75-.16h-.32a1.21 1.21 0 00-.34.08.75.75 0 00-.28.18.42.42 0 00-.11.3.5.5 0 00.16.38 1.18 1.18 0 00.43.24 3.69 3.69 0 00.6.16l.69.15a5.27 5.27 0 01.68.19 2.11 2.11 0 01.6.3 1.39 1.39 0 01.58 1.19 1.53 1.53 0 01-.23.87zm2.49.84h-1.27v-5.75h1.27zm0-6.74h-1.27v-1.21h1.27zm7 5a3.05 3.05 0 01-.46 1 2.2 2.2 0 01-1.88.92 3.86 3.86 0 01-.58 0 2.11 2.11 0 01-.56-.15 1.86 1.86 0 01-.49-.29 1.46 1.46 0 01-.36-.47v.79h-1.2v-8h1.27v2.94a1.89 1.89 0 01.32-.37 2.09 2.09 0 01.9-.47 2.05 2.05 0 01.49-.06 2.75 2.75 0 011.19.24 2.29 2.29 0 01.84.66 2.79 2.79 0 01.5 1 4.29 4.29 0 010 2.32zm2.52 1.72h-1.3v-8h1.27zm6.6-2.55h-4.23a2 2 0 00.1.65 1.51 1.51 0 00.28.55 1.47 1.47 0 00.48.37 1.6 1.6 0 00.69.14 1.49 1.49 0 00.89-.24 1.4 1.4 0 00.51-.72h1.2a2.4 2.4 0 01-.34.84 2.45 2.45 0 01-.59.61 2.36 2.36 0 01-.78.38 2.9 2.9 0 01-.89.13 3 3 0 01-1.2-.22 2.5 2.5 0 01-1.43-1.59 3.63 3.63 0 01-.19-1.22 3.45 3.45 0 01.2-1.16 3 3 0 01.55-1 2.61 2.61 0 01.88-.66 2.57 2.57 0 011.16-.25 2.43 2.43 0 011.21.29 2.74 2.74 0 01.9.75 3 3 0 01.52 1.07 3.28 3.28 0 01.05 1.3zm9.65.83a2.85 2.85 0 01-.46 1 2.2 2.2 0 01-1.87.92 3.9 3.9 0 01-.59 0 2.21 2.21 0 01-.56-.15 1.66 1.66 0 01-.48-.29 1.36 1.36 0 01-.37-.47v.79h-1.2v-8h1.27v2.94a1.89 1.89 0 01.32-.37 2.09 2.09 0 01.9-.47 2.14 2.14 0 01.5-.06 2.73 2.73 0 011.18.24 2.29 2.29 0 01.84.66 2.63 2.63 0 01.5 1 4.29 4.29 0 010 2.32zm4 2l-.31.74a2.73 2.73 0 01-.36.63 1.66 1.66 0 01-.54.44 1.93 1.93 0 01-.82.16 6.4 6.4 0 01-.88-.07v-1.01l.3.05a1.53 1.53 0 00.3 0 1 1 0 00.37-.06.51.51 0 00.24-.16.89.89 0 00.16-.25c0-.09.08-.21.12-.33l.15-.45-2.19-5.73h1.4l1.5 4.3 1.46-4.3h1.33zm12.75-.71v.08h-.08a1.6 1.6 0 01-.46.22 1.19 1.19 0 01-.49.22h-.06a.12.12 0 01-.09-.12.57.57 0 01-.11-.2v-.14c0-.21.09-.7.1-.86v-1.14c0-.83-.06-1.83-.1-2.39 0-1-.76-1.54-2.46-1.22h-.07c-1.75.35-1.8 1-1.8 1.24s-.05.57 0 1.22v2.81l.06.27a.19.19 0 01-.05.12.23.23 0 01-.12.1l-.72.24a.62.62 0 01-.26.09s-.16 0-.14-.25 0-.59 0-.59v-3.25l-.07-1.39c-.05-.81-.43-1-.43-1s0-.22.7-.66c.27-.18.95-.19.93.29v.91l.17-.22.34-.33a5 5 0 01.53-.32 6.7 6.7 0 012.28-.45 2.3 2.3 0 011.71.51.49.49 0 01.13.12l.11.19.16.25a.92.92 0 01.11.56v.62c0 .86.14 4 .14 4.27a.27.27 0 01.04.2zm-7-15V81.26h1.27a12 12 0 0112 12V109zm15.75 15l-.12.18-.23.09-.33.17-.3.09a2 2 0 01-.34.12.14.14 0 01-.11-.06.15.15 0 010-.11 1.3 1.3 0 01.08-.34 1.41 1.41 0 00.06-.27l-.16.1h-.14a10.83 10.83 0 01-2.68.64c-2 .3-2.52-.23-3-.92s.09-1.52.75-2.11a5.09 5.09 0 012.12-1 1.73 1.73 0 01.39-.1 17.07 17.07 0 012.37-.3.51.51 0 00.22-.12 2.76 2.76 0 00-.37-1.4 1.51 1.51 0 00-.88-.63 3 3 0 00-2.47.45 2.14 2.14 0 00-.29.22l-.09.13a.29.29 0 01-.16.11h-.06a1.71 1.71 0 01-.52-.17h-.11a.71.71 0 01-.24-.13c-.07-.06-.12-.12-.12-.17l.13-.09.26-.2h.28l.41-.21.18-.06a5.4 5.4 0 01.73-.26l.1-.06a4.93 4.93 0 011.12-.15h.77a3.12 3.12 0 011.19.27h.08l.14.08a2.75 2.75 0 01.41.31.1.1 0 01.08.07l.17.19a.83.83 0 01.09.16h.06v.08a11.65 11.65 0 01.39 2.95 13.37 13.37 0 00.16 2.23zm-14.49-45.59h-1.28V50.66h1.31a34.86 34.86 0 0134.82 34.72V109h-20V93.29a14.87 14.87 0 00-14.85-14.88zM173.14 124v.08h-.08a1.6 1.6 0 01-.46.22 1.25 1.25 0 01-.49.22h-.06a.12.12 0 01-.09-.12.57.57 0 01-.11-.2v-.14c0-.21.09-.7.1-.86v-1.14c0-.83-.06-1.83-.1-2.39-.05-1-.76-1.54-2.46-1.22h-.07c-1.76.35-1.8 1-1.8 1.24s-.05.57 0 1.22v2.81l.06.27a.28.28 0 010 .12.23.23 0 01-.12.1l-.72.24a.62.62 0 01-.26.09s-.16 0-.14-.25 0-.59 0-.59v-3.25l-.07-1.39c0-.81-.43-1-.43-1s0-.22.7-.66c.27-.18.95-.19.93.29v.91l.17-.22.34-.33a5 5 0 01.53-.32 6.69 6.69 0 012.27-.45 2.32 2.32 0 011.72.51.46.46 0 01.12.12l.12.19.16.25a.92.92 0 01.11.56v.62c0 .86.14 4 .14 4.27a.27.27 0 01-.01.2zm8.76 0l-.12.18-.24.09-.32.17-.31.09a1.69 1.69 0 01-.34.12.17.17 0 01-.11-.06.21.21 0 01-.05-.11 2 2 0 01.08-.34.84.84 0 00.07-.27l-.16.1h-.14a11 11 0 01-2.68.64c-2 .3-2.52-.23-3-.92s.1-1.52.76-2.11a5 5 0 012.11-1 1.73 1.73 0 01.39-.1 17.07 17.07 0 012.37-.3.42.42 0 00.21-.12 2.66 2.66 0 00-.37-1.4 1.46 1.46 0 00-.87-.63 3 3 0 00-2.48.45 3.06 3.06 0 00-.29.22l-.09.13a.26.26 0 01-.16.11 1.71 1.71 0 01-.52-.17h-.11a.71.71 0 01-.24-.13c-.08-.06-.12-.12-.12-.17l.13-.09.26-.2h.27l.42-.21.18-.06a4.86 4.86 0 01.72-.26l.1-.06h.05a5 5 0 011.13-.15h.77a3.06 3.06 0 011.18.27h.09l.14.08a3.38 3.38 0 01.41.31.1.1 0 01.08.07 1.57 1.57 0 01.18.19l.09.16h.05v.08a11.66 11.66 0 01.4 2.95 13.37 13.37 0 00.16 2.23zm11.26.09h-.1c-.13.09-.34.22-.54.33l-.19.13h-.34v-.5a10.1 10.1 0 00.05-1.07v-4.04c-.11-.28-.51-.74-.92-.7h-.67a3.85 3.85 0 00-.63.21 1.33 1.33 0 00-.49.35v.68c0 .86.13 4 .14 4.27a.27.27 0 010 .15v.08h-.08a1.87 1.87 0 01-.3.17h-.05l-.21.08a1.22 1.22 0 01-.38.16.14.14 0 01-.08-.07h-.05v-.06l.07-.84v-.66a.61.61 0 010-.15v-.68a2.53 2.53 0 010-.28l-.06-.1v-.51c0-.57 0-1.13-.07-1.5-.05-.83 0-1.17-.58-1.22a.65.65 0 00-.15 0v-.06H187a4.13 4.13 0 00-1.55.55 2.9 2.9 0 00-.23.53 2.15 2.15 0 00-.06.55v3.29l.07.84v.11a.18.18 0 01-.06.1.74.74 0 01-.16.11l-.52.26a.37.37 0 01-.2 0 .81.81 0 01-.25 0v-4.2c0-.82-.05-1.56-.09-1.93v-.16l-.07-.08-.17-.16a1.18 1.18 0 01.38-.42 3.24 3.24 0 01.75-.37l.07.06a.33.33 0 01.19.06.19.19 0 01.11.13v.9h.13l.3-.32h.08a4.26 4.26 0 01.6-.45.37.37 0 01.14-.06h.08a6.83 6.83 0 01.73-.14h.11a8 8 0 011.08-.08h-.05a.62.62 0 01.42.18 1 1 0 01.24.52.43.43 0 000 .16.22.22 0 00.07.06 3.14 3.14 0 00.52-.38 2.68 2.68 0 01.59-.3h.27a4.5 4.5 0 01.6-.09h.87a1.7 1.7 0 01.69.21.52.52 0 01.19.17l.06.08a3 3 0 01.23 1.12l.05.12v4.86zm3.39-1.14v.79a2.17 2.17 0 01-.5.45l-.4.3a.29.29 0 01-.23.1.28.28 0 01-.18-.06.16.16 0 01-.08-.13 1.09 1.09 0 01.07-.33 1.55 1.55 0 000-.32v-4.23a5.49 5.49 0 00-.09-1.13.8.8 0 00-.13-.13.9.9 0 01.46-.47l.76-.43a.61.61 0 01.39.25 1.72 1.72 0 00-.17.6c.08.79.09 3.64.1 4.79zm-.35-7.51a2.19 2.19 0 01-.9.42h-.06a.1.1 0 01-.08 0 .16.16 0 010-.1.32.32 0 01.09-.25l.69-.62a2.54 2.54 0 01.49-.61.49.49 0 01.21 0 .39.39 0 01.25.1.29.29 0 01.1.24c.01.25-.56.66-.79.85zm9.24 7.55l-.07.31v.09l-.06.07v.07a3.57 3.57 0 01-2.93 1.07h-.88a4.76 4.76 0 01-1.79-.46h-.13a2.75 2.75 0 01-1.25-1.34v-.07a2.86 2.86 0 01-.2-.88 2.78 2.78 0 01.07-.81v-.27l.17-.3a9.26 9.26 0 01.43-1c.7-1.36 2.69-2 3.51-2a3.21 3.21 0 01.72 0h1.63c.63 0 0 .79-.59 1l-.23.11h-.49l-.85-.13a5.36 5.36 0 00-.58 0 3 3 0 00-2 .9 2.41 2.41 0 00-.48.71 1.34 1.34 0 00-.1.45v.35a.22.22 0 000 .08 4.9 4.9 0 001 2.19h.09l.09.13.53.36h.06a4.47 4.47 0 002.5.19 2.58 2.58 0 00.47-.16l.23-.15h.18l.42-.26c.11-.09.23-.21.37-.35a.28.28 0 01.2-.13.16.16 0 01.11 0 .17.17 0 01.05.12.19.19 0 01-.2.12zm8.51 1l-.13.18-.23.09-.32.17-.31.09a2 2 0 01-.34.12.15.15 0 01-.11-.06.21.21 0 010-.11 2 2 0 01.08-.34.67.67 0 00.06-.27l-.15.1h-.14a11.08 11.08 0 01-2.69.64c-2 .3-2.51-.23-3-.92s.1-1.52.76-2.11a5 5 0 012.11-1 1.73 1.73 0 01.39-.1 17.07 17.07 0 012.37-.3.42.42 0 00.21-.12 2.66 2.66 0 00-.37-1.4 1.51 1.51 0 00-.88-.63 3 3 0 00-2.47.45 3.06 3.06 0 00-.29.22l-.09.13a.29.29 0 01-.16.11h-.05a1.71 1.71 0 01-.52-.17h-.11a.71.71 0 01-.24-.13c-.08-.06-.12-.12-.12-.17l.13-.09.25-.2h.28l.42-.21.18-.06a4.86 4.86 0 01.72-.26l.11-.06a5 5 0 011.13-.15h.77a3.06 3.06 0 011.18.27h.09l.14.08a3.38 3.38 0 01.41.31.11.11 0 01.08.07c.07.06.12.13.18.19l.09.16v.08a11.22 11.22 0 01.39 2.95 14.21 14.21 0 00.17 2.23zm.23-15h-26.62V85a37.68 37.68 0 00-37.7-37.23h-1.27V20.05h1.27a64.29 64.29 0 0164.32 64.33z"/><path class="cls-2" d="M180.48 121.14a.33.33 0 00-.23-.1h-1.07a4.31 4.31 0 00-3.22 1.12 1 1 0 00-.25.59l.15.6a1.3 1.3 0 00.68.61 4.51 4.51 0 002.51-.16 3.6 3.6 0 001.5-.81v-.1c-.02-.55-.05-1.2-.07-1.75z"/></g></g></svg>